<svg xmlns="http://www.w3.org/2000/svg" viewBox="0 0 1200 750" font-family="Segoe UI, Helvetica, Arial, sans-serif">
  <defs>
    <filter id="shadow" x="-4%" y="-4%" width="108%" height="112%">
      <feDropShadow dx="0" dy="2" stdDeviation="4" flood-opacity="0.08"/>
    </filter>
    <filter id="shadowDeep" x="-4%" y="-4%" width="108%" height="116%">
      <feDropShadow dx="0" dy="4" stdDeviation="8" flood-opacity="0.12"/>
    </filter>
    <linearGradient id="gBlue" x1="0" y1="0" x2="0" y2="1">
      <stop offset="0%" stop-color="#4A90D9"/><stop offset="100%" stop-color="#357ABD"/>
    </linearGradient>
    <linearGradient id="gGreen" x1="0" y1="0" x2="0" y2="1">
      <stop offset="0%" stop-color="#5CB85C"/><stop offset="100%" stop-color="#449D44"/>
    </linearGradient>
    <linearGradient id="gOrangeL" x1="0" y1="0" x2="0" y2="1">
      <stop offset="0%" stop-color="#F5A623"/><stop offset="100%" stop-color="#E09100"/>
    </linearGradient>
    <linearGradient id="gPurple" x1="0" y1="0" x2="0" y2="1">
      <stop offset="0%" stop-color="#8E44AD"/><stop offset="100%" stop-color="#71368A"/>
    </linearGradient>
    <linearGradient id="gRed" x1="0" y1="0" x2="0" y2="1">
      <stop offset="0%" stop-color="#E74C3C"/><stop offset="100%" stop-color="#C0392B"/>
    </linearGradient>
    <linearGradient id="gTeal" x1="0" y1="0" x2="0" y2="1">
      <stop offset="0%" stop-color="#1ABC9C"/><stop offset="100%" stop-color="#16A085"/>
    </linearGradient>
    <linearGradient id="gNavy" x1="0" y1="0" x2="0" y2="1">
      <stop offset="0%" stop-color="#2C3E50"/><stop offset="100%" stop-color="#1A252F"/>
    </linearGradient>
    <marker id="arrowGray" markerWidth="10" markerHeight="7" refX="9" refY="3.5" orient="auto">
      <polygon points="0 0, 10 3.5, 0 7" fill="#95a5a6"/>
    </marker>
    <marker id="arrowBlue" markerWidth="10" markerHeight="7" refX="9" refY="3.5" orient="auto">
      <polygon points="0 0, 10 3.5, 0 7" fill="#4A90D9"/>
    </marker>
    <marker id="arrowPurple" markerWidth="10" markerHeight="7" refX="9" refY="3.5" orient="auto">
      <polygon points="0 0, 10 3.5, 0 7" fill="#8E44AD"/>
    </marker>
    <marker id="arrowRed" markerWidth="10" markerHeight="7" refX="9" refY="3.5" orient="auto">
      <polygon points="0 0, 10 3.5, 0 7" fill="#E74C3C"/>
    </marker>
    <marker id="arrowTeal" markerWidth="10" markerHeight="7" refX="9" refY="3.5" orient="auto">
      <polygon points="0 0, 10 3.5, 0 7" fill="#1ABC9C"/>
    </marker>
    <marker id="arrowGreen" markerWidth="10" markerHeight="7" refX="9" refY="3.5" orient="auto">
      <polygon points="0 0, 10 3.5, 0 7" fill="#5CB85C"/>
    </marker>
  </defs>

  <!-- Background -->
  <rect width="1200" height="750" fill="#FAFBFC"/>
  
  <!-- Title -->
  <text x="600" y="38" text-anchor="middle" font-size="24" font-weight="700" fill="#2C3E50" letter-spacing="1">QDT-ISAC  ·  System Architecture</text>
  <text x="600" y="60" text-anchor="middle" font-size="12" fill="#95a5a6" letter-spacing="0.5">Quantum-Assisted Digital Twin for Closed-Loop Secure and Adaptive ISAC in 6G Open RAN</text>
  <line x1="150" y1="72" x2="1050" y2="72" stroke="#ecf0f1" stroke-width="1"/>

  <!-- Layer Labels (left side) -->
  <text x="18" y="155" font-size="10" fill="#bdc3c7" font-weight="600" transform="rotate(-90,18,155)" letter-spacing="2">PHYSICAL</text>
  <text x="18" y="370" font-size="10" fill="#bdc3c7" font-weight="600" transform="rotate(-90,18,370)" letter-spacing="2">PROCESSING</text>
  <text x="18" y="600" font-size="10" fill="#bdc3c7" font-weight="600" transform="rotate(-90,18,600)" letter-spacing="2">CONTROL</text>

  <!-- ============ ROW 1: Physical ============ -->
  <!-- 6G Open RAN -->
  <g filter="url(#shadow)">
    <rect x="50" y="95" width="300" height="120" rx="10" fill="url(#gBlue)"/>
    <text x="200" y="130" text-anchor="middle" font-size="15" font-weight="700" fill="white">6G Open RAN Network</text>
    <text x="200" y="155" text-anchor="middle" font-size="11" fill="#D4E6F9">4 Base Stations  ·  64 Antennas</text>
    <text x="200" y="175" text-anchor="middle" font-size="11" fill="#D4E6F9">100 MHz  ·  3.5 GHz  ·  OFDMA</text>
    <text x="200" y="195" text-anchor="middle" font-size="11" fill="#D4E6F9">1000 × 1000 m coverage</text>
  </g>

  <!-- Mobile Entities -->
  <g filter="url(#shadow)">
    <rect x="380" y="95" width="300" height="120" rx="10" fill="url(#gGreen)"/>
    <text x="530" y="130" text-anchor="middle" font-size="15" font-weight="700" fill="white">Mobile Entities</text>
    <text x="530" y="155" text-anchor="middle" font-size="11" fill="#D5EFDA">40 Users  (1–5 m/s pedestrian)</text>
    <text x="530" y="175" text-anchor="middle" font-size="11" fill="#D5EFDA">10 Targets  (5–20 m/s vehicular)</text>
    <text x="530" y="195" text-anchor="middle" font-size="11" fill="#D5EFDA">Random waypoint mobility</text>
  </g>

  <!-- Quantum Engine -->
  <g filter="url(#shadow)">
    <rect x="730" y="95" width="420" height="120" rx="10" fill="url(#gTeal)"/>
    <text x="940" y="130" text-anchor="middle" font-size="15" font-weight="700" fill="white">Quantum-Assisted Engine</text>
    <text x="940" y="155" text-anchor="middle" font-size="11" fill="#D1F2EB">Grover-inspired amplitude amplification</text>
    <text x="940" y="175" text-anchor="middle" font-size="11" fill="#D1F2EB">20 candidates / BS  ·  Per-BS optimisation</text>
    <text x="940" y="195" text-anchor="middle" font-size="11" fill="#D1F2EB">Gate fidelity 0.995  ·  Decoherence model</text>
  </g>

  <!-- ============ ROW 2: Processing ============ -->
  <!-- Communication -->
  <g filter="url(#shadow)">
    <rect x="50" y="310" width="230" height="120" rx="10" fill="white" stroke="#F5A623" stroke-width="2"/>
    <rect x="50" y="310" width="230" height="35" rx="10" fill="url(#gOrangeL)"/>
    <rect x="50" y="330" width="230" height="15" fill="url(#gOrangeL)"/>
    <text x="165" y="334" text-anchor="middle" font-size="13" font-weight="700" fill="white">Communication</text>
    <text x="165" y="368" text-anchor="middle" font-size="11" fill="#7f8c8d">SINR  /  Shannon Throughput</text>
    <text x="165" y="390" text-anchor="middle" font-size="11" fill="#7f8c8d">OFDMA  ·  50 PRBs per slot</text>
    <text x="165" y="412" text-anchor="middle" font-size="11" fill="#7f8c8d">Outage detection</text>
  </g>

  <!-- Sensing -->
  <g filter="url(#shadow)">
    <rect x="310" y="310" width="230" height="120" rx="10" fill="white" stroke="#F5A623" stroke-width="2"/>
    <rect x="310" y="310" width="230" height="35" rx="10" fill="url(#gOrangeL)"/>
    <rect x="310" y="330" width="230" height="15" fill="url(#gOrangeL)"/>
    <text x="425" y="334" text-anchor="middle" font-size="13" font-weight="700" fill="white">Sensing</text>
    <text x="425" y="368" text-anchor="middle" font-size="11" fill="#7f8c8d">Mono-static radar SNR</text>
    <text x="425" y="390" text-anchor="middle" font-size="11" fill="#7f8c8d">Swerling-I  ·  P_d estimation</text>
    <text x="425" y="412" text-anchor="middle" font-size="11" fill="#7f8c8d">CRLB range tracking</text>
  </g>

  <!-- Digital Twin -->
  <g filter="url(#shadow)">
    <rect x="570" y="310" width="260" height="120" rx="10" fill="white" stroke="#8E44AD" stroke-width="2"/>
    <rect x="570" y="310" width="260" height="35" rx="10" fill="url(#gPurple)"/>
    <rect x="570" y="330" width="260" height="15" fill="url(#gPurple)"/>
    <text x="700" y="334" text-anchor="middle" font-size="13" font-weight="700" fill="white">Imperfect Digital Twin</text>
    <text x="700" y="368" text-anchor="middle" font-size="11" fill="#7f8c8d">Sync delay  =  5 slots</text>
    <text x="700" y="390" text-anchor="middle" font-size="11" fill="#7f8c8d">Position + SINR noise</text>
    <text x="700" y="412" text-anchor="middle" font-size="11" fill="#7f8c8d">Staleness  ·  Confidence scoring</text>
  </g>

  <!-- Security -->
  <g filter="url(#shadow)">
    <rect x="860" y="310" width="290" height="120" rx="10" fill="white" stroke="#E74C3C" stroke-width="2"/>
    <rect x="860" y="310" width="290" height="35" rx="10" fill="url(#gRed)"/>
    <rect x="860" y="330" width="290" height="15" fill="url(#gRed)"/>
    <text x="1005" y="334" text-anchor="middle" font-size="13" font-weight="700" fill="white">Security Module</text>
    <text x="1005" y="368" text-anchor="middle" font-size="11" fill="#7f8c8d">EWMA anomaly scoring</text>
    <text x="1005" y="390" text-anchor="middle" font-size="11" fill="#7f8c8d">Bayesian trust dynamics</text>
    <text x="1005" y="412" text-anchor="middle" font-size="11" fill="#7f8c8d">Jamming + Spoofing detection</text>
  </g>

  <!-- ============ ROW 3: Controller ============ -->
  <g filter="url(#shadowDeep)">
    <rect x="130" y="540" width="940" height="110" rx="12" fill="url(#gNavy)"/>
    <text x="600" y="575" text-anchor="middle" font-size="16" font-weight="700" fill="white" letter-spacing="0.5">Adaptive Closed-Loop Controller</text>
    <text x="600" y="600" text-anchor="middle" font-size="11" fill="#AEB6BF">Per-BS Power Adaptation   ·   Trust-Weighted Resource Gating   ·   Online Weight Tuning</text>
    <text x="600" y="622" text-anchor="middle" font-size="11" fill="#AEB6BF">Sensing / Communication Split   ·   Security-Aware Per-BS RB Allocation</text>
  </g>

  <!-- ============ ARROWS ============ -->
  <!-- Row1 → Row2 -->
  <line x1="200" y1="215" x2="165" y2="310" stroke="#4A90D9" stroke-width="2" marker-end="url(#arrowBlue)"/>
  <text x="160" y="265" font-size="9" fill="#4A90D9" font-weight="600">Channel</text>

  <line x1="530" y1="215" x2="425" y2="310" stroke="#5CB85C" stroke-width="2" marker-end="url(#arrowGreen)"/>
  <text x="460" y="265" font-size="9" fill="#5CB85C" font-weight="600">Mobility</text>

  <!-- Row2 horizontal -->
  <line x1="280" y1="370" x2="310" y2="370" stroke="#95a5a6" stroke-width="1.5" marker-end="url(#arrowGray)"/>
  <line x1="540" y1="370" x2="570" y2="370" stroke="#8E44AD" stroke-width="1.5" marker-end="url(#arrowPurple)"/>
  <text x="555" y="362" font-size="8" fill="#8E44AD" font-weight="600">State</text>
  <line x1="830" y1="370" x2="860" y2="370" stroke="#E74C3C" stroke-width="1.5" marker-end="url(#arrowRed)"/>
  <text x="845" y="362" font-size="8" fill="#E74C3C" font-weight="600">Trust</text>

  <!-- DT → QA (upward) -->
  <path d="M 780 310 Q 820 250 870 215" stroke="#8E44AD" stroke-width="2" fill="none" marker-end="url(#arrowPurple)"/>
  <text x="840" y="255" font-size="9" fill="#8E44AD" font-weight="600">Estimates</text>

  <!-- QA → Security (downward) -->
  <path d="M 1000 215 Q 1020 265 1005 310" stroke="#1ABC9C" stroke-width="2" fill="none" marker-end="url(#arrowTeal)"/>
  <text x="1035" y="265" font-size="9" fill="#1ABC9C" font-weight="600">Candidates</text>

  <!-- Row2 → Controller -->
  <line x1="165" y1="430" x2="300" y2="540" stroke="#E09100" stroke-width="1.5" marker-end="url(#arrowGray)" stroke-dasharray="6,3"/>
  <line x1="425" y1="430" x2="450" y2="540" stroke="#E09100" stroke-width="1.5" marker-end="url(#arrowGray)" stroke-dasharray="6,3"/>
  <line x1="700" y1="430" x2="650" y2="540" stroke="#8E44AD" stroke-width="2" marker-end="url(#arrowPurple)"/>
  <text x="660" y="490" font-size="9" fill="#8E44AD" font-weight="600">DT Info</text>
  <line x1="1005" y1="430" x2="900" y2="540" stroke="#E74C3C" stroke-width="2" marker-end="url(#arrowRed)"/>
  <text x="965" y="490" font-size="9" fill="#E74C3C" font-weight="600">Decisions</text>

  <!-- Feedback Loop -->
  <path d="M 130 580 Q 40 580 40 155 Q 40 95 50 95" stroke="#5CB85C" stroke-width="2.5" fill="none" 
        stroke-dasharray="8,4" marker-end="url(#arrowGreen)" opacity="0.7"/>
  <text x="28" y="380" font-size="10" fill="#5CB85C" font-weight="700" transform="rotate(-90,28,380)" letter-spacing="2">FEEDBACK</text>

  <!-- Bottom info -->
  <text x="600" y="700" text-anchor="middle" font-size="10" fill="#bdc3c7">5 Baselines  ·  50 Monte Carlo  ·  3000 Time Slots  ·  12+ Parameter Sweeps</text>
  <line x1="300" y1="710" x2="900" y2="710" stroke="#ecf0f1" stroke-width="0.5"/>
  <text x="600" y="730" text-anchor="middle" font-size="9" fill="#d5d8dc">github.com/YassirALKarawi/qdt-isac-6g</text>
</svg>
